<svg xmlns="http://www.w3.org/2000/svg" viewBox="0 0 800 1000" preserveAspectRatio="xMidYMid slice">
  <defs>
    <linearGradient id="sky" x1="0" y1="0" x2="0" y2="1">
      <stop offset="0" stop-color="#f4d9c2"></stop>
      <stop offset="1" stop-color="#ecd8cc"></stop>
    </linearGradient>
    <linearGradient id="ground" x1="0" y1="0" x2="0" y2="1">
      <stop offset="0" stop-color="#d9c9b3"></stop>
      <stop offset="1" stop-color="#bfa988"></stop>
    </linearGradient>
    <linearGradient id="house" x1="0" y1="0" x2="0" y2="1">
      <stop offset="0" stop-color="#fffaf2"></stop>
      <stop offset="1" stop-color="#efe4cf"></stop>
    </linearGradient>
  </defs>

  <rect width="800" height="1000" fill="url(#sky)"></rect>

  <g opacity="0.5">
    <circle cx="80" cy="540" r="70" fill="#8aa07a"></circle>
    <circle cx="180" cy="520" r="90" fill="#7d9269"></circle>
    <circle cx="660" cy="540" r="80" fill="#8aa07a"></circle>
    <circle cx="760" cy="530" r="100" fill="#7d9269"></circle>
  </g>

  <rect y="600" width="800" height="400" fill="url(#ground)"></rect>
  <rect y="600" width="800" height="6" fill="#a08864" opacity="0.4"></rect>

  
  <g transform="translate(180,200)">
    <polygon points="-10,180 220,30 450,180" fill="#b85c3c"></polygon>
    <polygon points="-10,180 220,30 450,180" fill="#000" opacity="0.05"></polygon>
    <rect x="320" y="60" width="40" height="80" fill="#8a4127"></rect>
    <rect x="20" y="180" width="420" height="240" fill="url(#house)"></rect>
    <rect x="20" y="180" width="420" height="240" fill="none" stroke="#1a1815" stroke-width="3"></rect>
    <rect x="190" y="280" width="80" height="140" fill="#1a1815"></rect>
    <rect x="190" y="280" width="80" height="140" fill="none" stroke="#1a1815" stroke-width="3"></rect>
    <circle cx="258" cy="350" r="3" fill="#c69749"></circle>
    <rect x="60" y="220" width="90" height="90" fill="#f4d9c2"></rect>
    <rect x="60" y="220" width="90" height="90" fill="none" stroke="#1a1815" stroke-width="3"></rect>
    <line x1="105" y1="220" x2="105" y2="310" stroke="#1a1815" stroke-width="2"></line>
    <line x1="60" y1="265" x2="150" y2="265" stroke="#1a1815" stroke-width="2"></line>
    <rect x="310" y="220" width="90" height="90" fill="#f4d9c2"></rect>
    <rect x="310" y="220" width="90" height="90" fill="none" stroke="#1a1815" stroke-width="3"></rect>
    <line x1="355" y1="220" x2="355" y2="310" stroke="#1a1815" stroke-width="2"></line>
    <line x1="310" y1="265" x2="400" y2="265" stroke="#1a1815" stroke-width="2"></line>
    <rect x="180" y="420" width="100" height="10" fill="#8a857c"></rect>
  </g>

  
  <g transform="translate(380,540)">
    <rect x="0" y="0" width="280" height="140" fill="#1a1815"></rect>
    <rect x="0" y="0" width="280" height="140" fill="none" stroke="#1a1815" stroke-width="3"></rect>
    <rect x="20" y="20" width="240" height="100" fill="#b85c3c"></rect>
    <text x="140" y="62" font-family="Georgia, serif" font-size="34" font-weight="700" fill="#fffaf2" text-anchor="middle" letter-spacing="2">SOBI</text>
    <text x="140" y="86" font-family="Georgia, serif" font-size="14" fill="#fffaf2" text-anchor="middle" letter-spacing="4">MOVING</text>
    <line x1="70" y1="98" x2="210" y2="98" stroke="#fffaf2" stroke-width="1" opacity="0.4"></line>
    <text x="140" y="113" font-family="system-ui, sans-serif" font-size="9" fill="#fffaf2" text-anchor="middle" letter-spacing="1.8" opacity="0.85">ATLANTA · LICENSED &amp; INSURED</text>
    <rect x="280" y="40" width="80" height="100" fill="#fffaf2" stroke="#1a1815" stroke-width="3"></rect>
    <rect x="290" y="55" width="60" height="50" fill="#7da9c9" stroke="#1a1815" stroke-width="2"></rect>
    <circle cx="60" cy="150" r="22" fill="#1a1815"></circle>
    <circle cx="60" cy="150" r="9" fill="#5a554d"></circle>
    <circle cx="220" cy="150" r="22" fill="#1a1815"></circle>
    <circle cx="220" cy="150" r="9" fill="#5a554d"></circle>
    <circle cx="320" cy="150" r="22" fill="#1a1815"></circle>
    <circle cx="320" cy="150" r="9" fill="#5a554d"></circle>
  </g>

  
  <g transform="translate(40,740)">
    <ellipse cx="80" cy="170" rx="80" ry="8" fill="#1a1815" opacity="0.2"></ellipse>
    
    <g>
      <polygon points="0,46 80,18 160,46 160,140 80,168 0,140" fill="#b88a4a"></polygon>
      <polygon points="0,46 80,18 160,46 80,74" fill="#d6ad6e"></polygon>
      <polygon points="160,46 160,140 80,168 80,74" fill="#8a6224"></polygon>
      <line x1="80" y1="74" x2="80" y2="168" stroke="#6e4f1c" stroke-width="2"></line>
      <text x="22" y="118" font-family="Georgia, serif" font-size="11" fill="#1a1815" opacity="0.55" letter-spacing="1.5">FRAGILE</text>
    </g>
    
    <g transform="translate(20,-58)">
      <polygon points="0,30 56,12 116,30 116,84 56,104 0,84" fill="#c69749"></polygon>
      <polygon points="0,30 56,12 116,30 56,48" fill="#dcb672"></polygon>
      <polygon points="116,30 116,84 56,104 56,48" fill="#9c7227"></polygon>
      <line x1="56" y1="48" x2="56" y2="104" stroke="#7a5a1c" stroke-width="2"></line>
    </g>
  </g>

  
  <g transform="translate(740,760)">
    <ellipse cx="0" cy="130" rx="55" ry="6" fill="#1a1815" opacity="0.2"></ellipse>
    <g>
      <polygon points="-50,30 0,12 50,30 50,108 0,128 -50,108" fill="#b88a4a"></polygon>
      <polygon points="-50,30 0,12 50,30 0,48" fill="#d6ad6e"></polygon>
      <polygon points="50,30 50,108 0,128 0,48" fill="#8a6224"></polygon>
      <line x1="0" y1="48" x2="0" y2="128" stroke="#6e4f1c" stroke-width="2"></line>
    </g>
  </g>

  
  <g transform="translate(140,540)">
    <ellipse cx="130" cy="270" rx="120" ry="10" fill="#1a1815" opacity="0.2"></ellipse>
    <image x="0" y="0" width="260" height="260"></image>
  </g>

  <g transform="translate(40,40)">
    <rect width="240" height="60" rx="30" fill="#1a1815"></rect>
    <circle cx="34" cy="30" r="10" fill="#b85c3c"></circle>
    <text x="58" y="36" font-family="Georgia, serif" font-size="18" font-weight="500" fill="#fffaf2">Welcome home.</text>
  </g>
</svg>