<svg xmlns="http://www.w3.org/2000/svg" viewBox="0 0 800 1000" preserveAspectRatio="xMidYMid slice">
<defs>
<linearGradient id="ab_sky" x1="0" y1="0" x2="0" y2="1">
<stop offset="0" stop-color="#f4d9c2"></stop>
<stop offset="1" stop-color="#ecd8cc"></stop>
</linearGradient>
<linearGradient id="ab_ground" x1="0" y1="0" x2="0" y2="1">
<stop offset="0" stop-color="#d9c9b3"></stop>
<stop offset="1" stop-color="#bfa988"></stop>
</linearGradient>
<linearGradient id="ab_house" x1="0" y1="0" x2="0" y2="1">
<stop offset="0" stop-color="#fffaf2"></stop>
<stop offset="1" stop-color="#efe4cf"></stop>
</linearGradient>
</defs>
<rect width="800" height="1000" fill="url(#ab_sky)"></rect>
<g opacity="0.5">
<circle cx="80" cy="430" r="80" fill="#8aa07a"></circle>
<circle cx="180" cy="410" r="95" fill="#7d9269"></circle>
<circle cx="700" cy="430" r="85" fill="#8aa07a"></circle>
<circle cx="770" cy="420" r="70" fill="#7d9269"></circle>
</g>
<g transform="translate(170,150)">
<polygon points="-10,160 230,40 470,160" fill="#b85c3c"></polygon>
<polygon points="-10,160 230,40 470,160" fill="#000" opacity="0.05"></polygon>
<rect x="330" y="70" width="34" height="70" fill="#8a4127"></rect>
<rect x="20" y="160" width="420" height="230" fill="url(#ab_house)"></rect>
<rect x="20" y="160" width="420" height="230" fill="none" stroke="#1a1815" stroke-width="3"></rect>
<rect x="195" y="260" width="80" height="130" fill="#1a1815"></rect>
<rect x="195" y="260" width="80" height="130" fill="none" stroke="#1a1815" stroke-width="3"></rect>
<circle cx="263" cy="328" r="3" fill="#c69749"></circle>
<rect x="60" y="200" width="90" height="90" fill="#f4d9c2" stroke="#1a1815" stroke-width="3"></rect>
<line x1="105" y1="200" x2="105" y2="290" stroke="#1a1815" stroke-width="2"></line>
<line x1="60" y1="245" x2="150" y2="245" stroke="#1a1815" stroke-width="2"></line>
<rect x="310" y="200" width="90" height="90" fill="#f4d9c2" stroke="#1a1815" stroke-width="3"></rect>
<line x1="355" y1="200" x2="355" y2="290" stroke="#1a1815" stroke-width="2"></line>
<line x1="310" y1="245" x2="400" y2="245" stroke="#1a1815" stroke-width="2"></line>
</g>
<g transform="translate(660,320)">
<rect x="-9" y="70" width="18" height="100" fill="#8a4127"></rect>
<circle cx="0" cy="45" r="64" fill="#8aa07a"></circle>
<circle cx="-40" cy="66" r="46" fill="#7d9269"></circle>
<circle cx="40" cy="64" r="46" fill="#7d9269"></circle>
<circle cx="0" cy="45" r="64" fill="none" stroke="#1a1815" stroke-width="3"></circle>
</g>
<rect y="560" width="800" height="440" fill="url(#ab_ground)"></rect>
<rect y="560" width="800" height="6" fill="#a08864" opacity="0.4"></rect>
<g transform="translate(440,440)">
<ellipse cx="190" cy="200" rx="190" ry="13" fill="#1a1815" opacity="0.2"></ellipse>
<rect x="0" y="0" width="250" height="135" fill="#1a1815"></rect>
<rect x="0" y="0" width="250" height="135" fill="none" stroke="#1a1815" stroke-width="3"></rect>
<rect x="18" y="18" width="214" height="92" fill="#b85c3c"></rect>
<text x="125" y="58" font-family="Georgia, serif" font-size="32" font-weight="700" fill="#fffaf2" text-anchor="middle" letter-spacing="2">SOBI</text>
<text x="125" y="80" font-family="Georgia, serif" font-size="13" fill="#fffaf2" text-anchor="middle" letter-spacing="4">MOVING</text>
<line x1="62" y1="92" x2="188" y2="92" stroke="#fffaf2" stroke-width="1" opacity="0.4"></line>
<text x="125" y="105" font-family="system-ui, sans-serif" font-size="8" fill="#fffaf2" text-anchor="middle" letter-spacing="1.5" opacity="0.85">ATLANTA · LICENSED &amp; INSURED</text>
<rect x="250" y="38" width="72" height="97" fill="#fffaf2" stroke="#1a1815" stroke-width="3"></rect>
<rect x="260" y="52" width="52" height="46" fill="#7da9c9" stroke="#1a1815" stroke-width="2"></rect>
<circle cx="56" cy="145" r="22" fill="#1a1815"></circle>
<circle cx="56" cy="145" r="9" fill="#5a554d"></circle>
<circle cx="198" cy="145" r="22" fill="#1a1815"></circle>
<circle cx="198" cy="145" r="9" fill="#5a554d"></circle>
<circle cx="288" cy="145" r="22" fill="#1a1815"></circle>
<circle cx="288" cy="145" r="9" fill="#5a554d"></circle>
</g>
<g transform="translate(420,640)">
<ellipse cx="48" cy="92" rx="50" ry="6" fill="#1a1815" opacity="0.2"></ellipse>
<polygon points="0,26 48,10 100,26 100,74 48,90 0,74" fill="#b88a4a"></polygon>
<polygon points="0,26 48,10 100,26 48,42" fill="#d6ad6e"></polygon>
<polygon points="100,26 100,74 48,90 48,42" fill="#8a6224"></polygon>
<line x1="48" y1="42" x2="48" y2="90" stroke="#6e4f1c" stroke-width="2"></line>
<g transform="translate(14,-46)">
<polygon points="0,22 40,8 84,22 84,62 40,78 0,62" fill="#c69749"></polygon>
<polygon points="0,22 40,8 84,22 40,36" fill="#dcb672"></polygon>
<polygon points="84,22 84,62 40,78 40,36" fill="#9c7227"></polygon>
<line x1="40" y1="36" x2="40" y2="78" stroke="#7a5a1c" stroke-width="2"></line>
</g>
</g>
<g transform="translate(120,560)">
<ellipse cx="55" cy="320" rx="62" ry="12" fill="#1a1815" opacity="0.2"></ellipse>
<rect x="32" y="220" width="20" height="100" fill="#1a1815"></rect>
<rect x="58" y="220" width="20" height="100" fill="#1a1815"></rect>
<rect x="28" y="312" width="28" height="14" rx="6" fill="#1a1815"></rect>
<rect x="54" y="312" width="28" height="14" rx="6" fill="#1a1815"></rect>
<path d="M 24,120 Q 55,108 86,120 L 92,224 L 18,224 Z" fill="#b85c3c" stroke="#1a1815" stroke-width="3"></path>
<rect x="8" y="124" width="18" height="86" rx="9" fill="#b85c3c" stroke="#1a1815" stroke-width="3"></rect>
<rect x="84" y="124" width="18" height="86" rx="9" fill="#b85c3c" stroke="#1a1815" stroke-width="3"></rect>
<circle cx="17" cy="216" r="9" fill="#efe4cf" stroke="#1a1815" stroke-width="2"></circle>
<circle cx="93" cy="216" r="9" fill="#efe4cf" stroke="#1a1815" stroke-width="2"></circle>
<circle cx="55" cy="92" r="32" fill="#efe4cf" stroke="#1a1815" stroke-width="3"></circle>
<path d="M 26,80 Q 55,46 84,80 Q 80,60 55,56 Q 30,60 26,80 Z" fill="#1a1815"></path>
<circle cx="45" cy="94" r="3" fill="#1a1815"></circle>
<circle cx="65" cy="94" r="3" fill="#1a1815"></circle>
<path d="M 47,108 Q 55,114 63,108" fill="none" stroke="#1a1815" stroke-width="2" stroke-linecap="round"></path>
</g>
<g transform="translate(250,580)">
<ellipse cx="52" cy="300" rx="60" ry="12" fill="#1a1815" opacity="0.2"></ellipse>
<rect x="30" y="206" width="19" height="94" fill="#1a1815"></rect>
<rect x="55" y="206" width="19" height="94" fill="#1a1815"></rect>
<rect x="26" y="292" width="27" height="14" rx="6" fill="#1a1815"></rect>
<rect x="51" y="292" width="27" height="14" rx="6" fill="#1a1815"></rect>
<path d="M 22,114 Q 52,102 82,114 L 88,210 L 16,210 Z" fill="#b85c3c" stroke="#1a1815" stroke-width="3"></path>
<path d="M 80,118 Q 96,150 60,164" fill="none" stroke="#1a1815" stroke-width="20" stroke-linecap="round"></path>
<path d="M 80,118 Q 96,150 60,164" fill="none" stroke="#b85c3c" stroke-width="14" stroke-linecap="round"></path>
<path d="M 24,118 Q 8,150 44,164" fill="none" stroke="#1a1815" stroke-width="20" stroke-linecap="round"></path>
<path d="M 24,118 Q 8,150 44,164" fill="none" stroke="#b85c3c" stroke-width="14" stroke-linecap="round"></path>
<circle cx="58" cy="164" r="9" fill="#efe4cf" stroke="#1a1815" stroke-width="2"></circle>
<circle cx="46" cy="164" r="9" fill="#efe4cf" stroke="#1a1815" stroke-width="2"></circle>
<circle cx="52" cy="86" r="32" fill="#efe4cf" stroke="#1a1815" stroke-width="3"></circle>
<path d="M 23,76 Q 52,42 81,76 Q 76,54 52,50 Q 28,54 23,76 Z" fill="#8a4127"></path>
<circle cx="42" cy="88" r="3" fill="#1a1815"></circle>
<circle cx="62" cy="88" r="3" fill="#1a1815"></circle>
<path d="M 44,102 Q 52,108 60,102" fill="none" stroke="#1a1815" stroke-width="2" stroke-linecap="round"></path>
</g>
<g transform="translate(330,610)">
<ellipse cx="50" cy="282" rx="58" ry="11" fill="#1a1815" opacity="0.2"></ellipse>
<rect x="30" y="196" width="18" height="86" fill="#1a1815"></rect>
<rect x="53" y="196" width="18" height="86" fill="#1a1815"></rect>
<rect x="26" y="274" width="26" height="13" rx="6" fill="#1a1815"></rect>
<rect x="50" y="274" width="26" height="13" rx="6" fill="#1a1815"></rect>
<path d="M 22,108 Q 50,96 78,108 L 84,200 L 16,200 Z" fill="#b85c3c" stroke="#1a1815" stroke-width="3"></path>
<rect x="8" y="76" width="17" height="60" rx="8" fill="#b85c3c" stroke="#1a1815" stroke-width="3"></rect>
<rect x="76" y="76" width="17" height="60" rx="8" fill="#b85c3c" stroke="#1a1815" stroke-width="3"></rect>
<g transform="translate(8,40)">
<polygon points="0,18 42,6 86,18 86,50 42,62 0,50" fill="#c69749"></polygon>
<polygon points="0,18 42,6 86,18 42,30 0,18" fill="#dcb672"></polygon>
<polygon points="86,18 86,50 42,62 42,30" fill="#9c7227"></polygon>
<polygon points="0,18 42,6 86,18 86,50 42,62 0,50" fill="none" stroke="#1a1815" stroke-width="3"></polygon>
</g>
<circle cx="50" cy="80" r="30" fill="#efe4cf" stroke="#1a1815" stroke-width="3"></circle>
<path d="M 23,70 Q 50,38 77,70 Q 72,50 50,46 Q 28,50 23,70 Z" fill="#1a1815"></path>
<circle cx="41" cy="82" r="3" fill="#1a1815"></circle>
<circle cx="59" cy="82" r="3" fill="#1a1815"></circle>
<path d="M 43,95 Q 50,101 57,95" fill="none" stroke="#1a1815" stroke-width="2" stroke-linecap="round"></path>
</g>
</svg>
